<svg id="svg" version="1.1" xmlns="http://www.w3.org/2000/svg" xmlns:xlink="http://www.w3.org/1999/xlink" width="400" height="58.93587994542974" viewBox="0, 0, 400,58.93587994542974"><g id="svgg"><path id="path0" d="M66.333 30.486 L 66.333 51.333 69.917 51.333 L 73.500 51.333 73.500 44.691 L 73.500 38.048 75.288 37.837 C 77.003 37.633,77.355 37.534,78.968 36.796 C 80.214 36.225,81.805 34.812,82.960 33.249 C 83.312 32.772,83.841 31.631,84.151 30.681 C 84.608 29.279,84.686 18.554,84.249 17.083 C 83.289 13.848,80.739 11.231,77.333 9.986 C 76.923 9.836,75.205 9.753,71.542 9.705 L 66.333 9.638 66.333 30.486 M96.130 9.827 C 93.298 10.345,90.516 12.869,89.407 15.926 L 89.000 17.049 89.000 30.431 L 89.000 43.813 89.438 45.026 C 92.412 53.272,104.139 53.334,107.144 45.119 L 107.583 43.917 107.629 30.755 C 107.680 16.116,107.688 16.233,106.406 14.161 C 104.312 10.778,100.263 9.071,96.130 9.827 M112.245 9.872 C 112.201 9.988,112.184 19.346,112.207 30.667 L 112.250 51.250 115.875 51.295 L 119.500 51.340 119.507 42.462 C 119.515 33.104,119.518 33.075,120.160 35.417 C 120.235 35.692,120.670 37.042,121.126 38.417 C 121.581 39.792,122.345 42.154,122.822 43.667 C 123.300 45.179,123.797 46.663,123.928 46.964 C 124.059 47.265,124.167 47.619,124.167 47.750 C 124.167 47.881,124.273 48.235,124.403 48.536 C 124.533 48.837,124.782 49.571,124.958 50.167 L 125.277 51.250 128.722 51.295 L 132.167 51.340 132.167 30.503 L 132.167 9.667 128.585 9.667 L 125.003 9.667 124.960 18.458 L 124.917 27.250 124.535 26.000 C 124.324 25.313,124.051 24.488,123.927 24.167 C 123.715 23.621,123.061 21.598,120.988 15.083 C 120.521 13.617,120.043 12.154,119.925 11.833 C 119.808 11.512,119.601 10.912,119.465 10.500 L 119.219 9.750 115.772 9.705 C 113.106 9.670,112.307 9.708,112.245 9.872 M144.333 9.785 C 141.229 10.330,138.295 13.005,137.241 16.250 C 136.744 17.782,136.736 43.227,137.233 44.667 C 140.114 53.013,151.452 53.574,154.933 45.542 C 155.576 44.059,155.666 42.825,155.666 35.542 L 155.667 28.500 150.583 28.500 L 145.500 28.500 145.500 32.167 L 145.500 35.833 146.929 35.833 L 148.357 35.833 148.304 39.330 L 148.250 42.828 147.711 43.366 C 146.879 44.198,145.533 44.163,144.732 43.288 L 144.167 42.672 144.167 30.497 C 144.167 16.898,144.086 17.803,145.352 17.157 C 146.368 16.639,147.040 16.790,147.875 17.725 C 148.035 17.904,148.176 18.058,148.188 18.067 C 148.200 18.076,148.256 18.908,148.313 19.917 L 148.417 21.750 152.000 21.750 L 155.583 21.750 155.640 20.250 C 155.902 13.336,150.832 8.644,144.333 9.785 M167.113 10.792 C 166.973 11.410,166.772 12.404,166.667 13.000 C 166.562 13.596,166.373 14.571,166.248 15.167 C 166.123 15.762,165.986 16.438,165.945 16.667 C 165.841 17.239,164.856 22.178,164.416 24.333 C 164.295 24.929,164.111 25.867,164.007 26.417 C 163.904 26.967,163.714 27.904,163.586 28.500 C 163.457 29.096,163.156 30.633,162.916 31.917 C 162.676 33.200,162.403 34.587,162.309 35.000 C 162.215 35.412,162.073 36.125,161.994 36.583 C 161.915 37.042,161.697 38.167,161.508 39.083 C 161.320 40.000,161.047 41.350,160.902 42.083 C 160.756 42.817,160.537 43.904,160.414 44.500 C 160.291 45.096,160.105 46.071,160.000 46.667 C 159.895 47.262,159.700 48.237,159.567 48.833 C 159.434 49.429,159.309 50.217,159.288 50.583 L 159.250 51.250 163.367 51.295 L 167.484 51.339 167.586 50.711 C 167.751 49.702,168.172 47.661,168.429 46.628 C 168.560 46.102,168.667 45.483,168.667 45.253 L 168.667 44.833 171.315 44.833 L 173.964 44.833 174.218 45.958 C 174.357 46.577,174.558 47.533,174.663 48.083 C 174.768 48.633,174.972 49.590,175.116 50.208 L 175.378 51.333 179.429 51.333 C 183.889 51.333,183.797 51.357,183.532 50.278 C 183.438 49.896,183.241 48.983,183.095 48.250 C 182.305 44.293,182.124 43.379,182.055 43.000 C 182.014 42.771,181.877 42.096,181.752 41.500 C 181.627 40.904,181.438 39.929,181.333 39.333 C 181.228 38.737,181.034 37.725,180.902 37.083 C 180.430 34.795,180.183 33.569,179.995 32.583 C 179.811 31.618,179.596 30.551,179.088 28.083 C 178.956 27.442,178.764 26.429,178.662 25.833 C 178.473 24.736,178.186 23.304,177.758 21.333 C 177.628 20.737,177.437 19.762,177.332 19.167 C 177.228 18.571,177.042 17.596,176.919 17.000 C 176.389 14.428,175.500 9.875,175.500 9.732 C 175.500 9.696,173.671 9.667,171.435 9.667 L 167.369 9.667 167.113 10.792 M187.333 30.502 L 187.333 51.337 195.458 51.293 L 203.583 51.250 203.583 47.667 L 203.583 44.083 199.042 44.039 L 194.500 43.995 194.500 26.831 L 194.500 9.667 190.917 9.667 L 187.333 9.667 187.333 30.502 M214.277 10.708 C 214.134 11.281,213.821 12.800,213.582 14.083 C 213.343 15.367,213.045 16.904,212.920 17.500 C 212.794 18.096,212.493 19.596,212.250 20.833 C 212.007 22.071,211.706 23.571,211.582 24.167 C 211.457 24.762,211.159 26.300,210.919 27.583 C 210.679 28.867,210.401 30.254,210.300 30.667 C 210.200 31.079,210.065 31.754,209.999 32.167 C 209.891 32.853,209.599 34.333,208.917 37.667 C 208.248 40.932,207.943 42.478,207.831 43.167 C 207.764 43.579,207.624 44.292,207.520 44.750 C 207.231 46.023,206.534 49.652,206.408 50.542 L 206.295 51.333 210.474 51.333 L 214.652 51.333 214.747 50.708 C 214.800 50.365,214.946 49.596,215.072 49.000 C 215.198 48.404,215.437 47.223,215.603 46.375 L 215.905 44.833 218.505 44.833 L 221.106 44.833 221.375 46.042 C 221.523 46.706,221.735 47.775,221.846 48.417 C 221.956 49.058,222.154 49.977,222.285 50.458 L 222.524 51.333 226.585 51.333 C 228.819 51.333,230.688 51.267,230.738 51.186 C 230.788 51.105,230.676 50.336,230.489 49.478 C 230.302 48.619,230.084 47.542,230.005 47.083 C 229.790 45.841,229.132 42.513,228.325 38.583 C 228.137 37.667,227.918 36.542,227.839 36.083 C 227.760 35.625,227.618 34.912,227.524 34.500 C 227.431 34.087,227.159 32.700,226.920 31.417 C 226.682 30.133,226.383 28.633,226.256 28.083 C 226.129 27.533,225.939 26.596,225.834 26.000 C 225.632 24.858,225.435 23.882,224.434 19.083 C 224.300 18.442,224.104 17.429,223.998 16.833 C 223.805 15.745,223.495 14.181,223.074 12.167 C 222.950 11.571,222.800 10.765,222.743 10.375 L 222.637 9.667 218.587 9.667 L 214.537 9.667 214.277 10.708 M75.295 17.091 C 77.144 17.864,77.325 18.451,77.330 23.683 C 77.335 29.456,76.877 30.500,74.342 30.500 L 73.500 30.500 73.500 23.667 L 73.500 16.833 74.089 16.833 C 74.412 16.833,74.955 16.949,75.295 17.091 M99.466 17.328 C 100.395 18.001,100.354 17.323,100.299 30.864 L 100.250 42.812 99.768 43.314 C 98.746 44.381,97.056 44.086,96.354 42.719 C 96.084 42.195,96.090 18.986,96.359 18.240 C 96.815 16.982,98.361 16.528,99.466 17.328 M171.429 30.126 C 171.248 30.307,171.196 30.083,171.304 29.583 L 171.411 29.083 171.468 29.557 C 171.499 29.817,171.482 30.074,171.429 30.126 M218.598 30.124 C 218.416 30.306,218.291 30.017,218.422 29.716 C 218.546 29.430,218.555 29.430,218.624 29.721 C 218.664 29.889,218.652 30.070,218.598 30.124 M219.169 33.167 C 219.283 34.129,219.479 35.479,219.605 36.167 C 219.962 38.122,220.035 38.000,218.500 38.000 C 217.213 38.000,216.758 37.772,217.333 37.417 C 217.425 37.360,217.500 37.127,217.500 36.899 C 217.500 36.672,217.606 36.020,217.735 35.451 C 218.081 33.925,218.466 32.019,218.601 31.167 C 218.753 30.206,218.863 30.597,219.169 33.167 M171.831 31.647 C 171.833 32.205,171.916 32.793,172.413 35.774 C 172.811 38.162,172.889 38.000,171.333 38.000 C 170.259 38.000,170.000 37.951,170.000 37.750 C 170.000 37.612,170.075 37.500,170.167 37.500 C 170.258 37.500,170.333 37.269,170.333 36.986 C 170.333 36.703,170.441 36.009,170.574 35.444 C 171.002 33.614,171.318 32.100,171.429 31.353 C 171.553 30.514,171.827 30.715,171.831 31.647 " stroke="none" fill="#fcfcfc" fill-rule="evenodd"></path><path id="path1" d="M18.767 10.006 C 18.145 10.193,17.398 10.907,16.943 11.750 C 16.600 12.385,16.396 32.285,16.729 32.618 C 16.776 32.664,18.203 31.401,19.901 29.810 L 22.989 26.917 22.994 19.916 C 22.998 15.839,22.932 12.677,22.837 12.347 C 22.304 10.486,20.545 9.475,18.767 10.006 M38.083 15.584 C 36.096 16.286,36.002 16.738,36.001 25.572 C 36.000 32.597,35.986 32.923,35.661 33.596 C 34.667 35.649,31.713 35.949,30.098 34.161 L 29.522 33.523 29.085 34.096 C 28.258 35.180,26.412 35.672,25.079 35.165 C 24.556 34.966,24.577 34.951,21.634 37.719 C 20.543 38.744,19.349 39.738,18.980 39.926 L 18.310 40.269 19.083 41.297 C 25.067 49.258,38.549 46.831,41.970 37.176 L 42.417 35.917 42.417 26.641 L 42.417 17.364 41.907 16.724 C 40.932 15.499,39.517 15.077,38.083 15.584 M25.250 20.570 C 23.896 21.174,23.500 22.119,23.500 24.749 L 23.500 26.583 24.902 26.583 C 28.874 26.583,29.760 30.105,26.546 33.114 C 24.924 34.633,24.913 34.751,26.406 34.747 C 27.630 34.744,28.530 34.200,28.941 33.218 C 29.407 32.102,29.189 22.232,28.683 21.522 C 27.959 20.507,26.375 20.067,25.250 20.570 M31.250 20.712 C 29.880 21.478,29.814 21.814,29.869 27.750 C 29.928 34.146,30.167 34.744,32.667 34.744 C 35.243 34.744,35.532 33.976,35.467 27.291 L 35.417 22.057 34.936 21.427 C 34.080 20.305,32.519 20.002,31.250 20.712 M23.857 27.213 C 23.208 27.420,15.137 34.918,14.744 35.678 C 13.166 38.729,17.157 40.950,19.878 38.535 C 21.112 37.440,25.359 33.472,26.691 32.170 C 29.262 29.655,27.246 26.130,23.857 27.213 " stroke="none" fill="#242424" fill-rule="evenodd"></path><path id="path2" d="M25.333 1.589 C 24.738 1.712,23.800 1.895,23.250 1.996 C 15.227 3.475,6.825 10.582,3.835 18.417 C 3.765 18.600,3.616 18.975,3.503 19.250 C 2.942 20.616,2.685 21.609,2.085 24.726 C 1.530 27.612,1.789 32.302,2.699 35.833 C 2.876 36.521,3.085 37.336,3.164 37.645 C 3.243 37.955,3.388 38.288,3.487 38.387 C 3.586 38.486,3.667 38.697,3.667 38.856 C 3.667 39.500,6.694 44.929,7.418 45.583 C 7.519 45.675,7.810 46.034,8.064 46.381 C 9.443 48.265,14.638 52.667,15.483 52.667 C 15.569 52.667,15.664 52.723,15.694 52.792 C 15.754 52.926,17.397 53.757,18.750 54.336 C 19.656 54.724,21.031 55.190,22.083 55.466 C 22.450 55.562,23.071 55.725,23.464 55.829 C 24.279 56.044,27.937 56.496,28.875 56.499 L 29.500 56.500 29.500 51.448 L 29.500 46.396 27.730 46.180 C 23.858 45.707,20.980 44.110,18.887 41.273 C 18.030 40.111,18.021 40.058,18.672 39.915 C 19.166 39.807,20.177 38.948,23.133 36.125 C 23.927 35.366,24.612 34.841,24.741 34.890 C 26.736 35.656,28.308 35.205,29.250 33.598 L 29.668 32.884 29.557 17.109 L 29.445 1.333 27.931 1.350 C 27.098 1.359,25.929 1.467,25.333 1.589 M268.241 6.642 C 266.790 6.904,264.855 8.542,264.969 9.411 C 264.996 9.620,264.915 9.895,264.788 10.021 C 264.662 10.148,264.506 10.514,264.442 10.834 C 264.316 11.467,263.595 13.896,263.255 14.833 C 262.895 15.828,262.616 16.725,262.480 17.333 C 262.073 19.142,262.017 19.334,261.405 21.000 C 261.287 21.321,261.142 21.807,261.083 22.080 C 260.970 22.598,260.353 21.250,260.339 20.453 C 260.336 20.290,260.221 20.113,260.083 20.060 C 259.946 20.008,259.833 19.839,259.833 19.687 C 259.833 19.257,258.874 16.765,258.103 15.193 C 257.863 14.703,257.664 14.216,257.661 14.110 C 257.650 13.690,257.187 13.276,256.950 13.472 C 256.767 13.624,256.632 13.465,256.263 12.665 C 256.010 12.118,255.591 11.463,255.332 11.210 C 255.073 10.957,254.649 10.545,254.389 10.295 C 254.129 10.045,253.658 9.789,253.342 9.726 C 253.026 9.663,252.509 9.437,252.194 9.223 C 251.874 9.005,251.354 8.827,251.018 8.819 C 250.687 8.812,250.241 8.786,250.027 8.763 C 249.812 8.739,249.537 8.821,249.414 8.943 C 249.291 9.066,249.008 9.167,248.784 9.167 C 248.561 9.167,248.188 9.317,247.955 9.500 C 247.721 9.683,247.483 9.833,247.425 9.833 C 247.225 9.833,246.734 10.418,246.516 10.917 C 245.804 12.543,245.663 13.345,245.260 18.044 C 245.129 19.581,244.979 20.971,244.927 21.134 C 244.875 21.297,244.793 21.990,244.745 22.674 C 244.697 23.357,244.585 24.324,244.496 24.822 C 244.406 25.320,244.333 26.124,244.333 26.608 C 244.333 27.318,244.269 27.523,244.000 27.667 C 243.759 27.796,243.666 28.016,243.665 28.464 C 243.665 28.805,243.598 29.533,243.517 30.083 C 243.435 30.633,243.280 31.871,243.172 32.833 C 243.064 33.796,242.873 35.296,242.747 36.167 C 242.535 37.637,242.453 39.193,242.251 45.500 C 242.209 46.829,242.149 48.404,242.119 49.000 C 242.037 50.593,241.917 50.512,244.226 50.429 C 247.102 50.325,248.220 50.047,248.855 49.276 C 249.131 48.941,249.463 48.667,249.592 48.667 C 249.828 48.667,249.918 48.411,250.061 47.333 C 250.104 47.012,250.223 46.188,250.326 45.500 C 250.820 42.198,250.903 41.484,250.946 40.167 C 251.013 38.079,251.150 36.727,251.429 35.375 C 251.471 35.169,251.609 35.000,251.735 35.000 C 251.861 35.000,252.010 34.881,252.066 34.736 C 252.225 34.320,252.183 33.667,251.997 33.667 C 251.794 33.667,251.934 33.026,252.342 32.083 C 252.677 31.308,252.651 31.260,253.240 33.750 C 253.478 34.758,253.743 35.808,253.829 36.083 C 254.051 36.796,254.500 39.022,254.501 39.417 C 254.502 39.600,254.614 39.965,254.751 40.227 C 254.888 40.490,255.000 40.809,255.000 40.937 C 255.000 41.064,255.188 41.557,255.417 42.032 C 255.646 42.507,255.836 42.975,255.839 43.073 C 255.842 43.170,255.984 43.545,256.155 43.906 C 256.326 44.267,256.434 44.644,256.396 44.744 C 256.358 44.843,256.549 45.056,256.822 45.217 C 257.297 45.498,257.314 45.546,257.244 46.494 C 257.150 47.767,257.546 48.164,258.851 48.104 C 259.311 48.083,259.725 48.126,259.770 48.200 C 259.943 48.479,260.167 48.305,260.736 47.449 C 261.286 46.620,261.358 46.570,261.911 46.634 C 262.244 46.673,262.500 46.629,262.500 46.534 C 262.500 46.441,262.873 46.096,263.330 45.768 C 264.137 45.188,264.667 44.348,264.667 43.646 C 264.667 43.474,264.730 43.333,264.807 43.333 C 264.969 43.333,265.225 42.507,265.505 41.083 C 265.613 40.533,265.763 39.933,265.839 39.750 C 265.914 39.567,266.024 38.933,266.083 38.341 C 266.142 37.750,266.273 37.113,266.374 36.925 C 266.474 36.737,266.616 36.096,266.688 35.500 C 266.761 34.904,266.903 33.929,267.005 33.333 C 267.107 32.737,267.249 31.875,267.320 31.417 C 267.391 30.958,267.536 30.372,267.641 30.114 C 267.747 29.856,267.833 29.380,267.833 29.057 C 267.833 28.382,268.522 25.981,268.626 26.293 C 268.751 26.670,269.167 26.516,269.167 26.093 C 269.167 25.869,269.235 25.644,269.318 25.593 C 269.549 25.450,269.328 24.833,269.046 24.833 C 268.787 24.833,268.803 24.428,269.113 23.194 L 269.252 22.639 269.446 23.361 C 269.866 24.933,270.333 27.824,270.571 30.333 C 270.611 30.746,270.719 31.833,270.813 32.750 C 271.009 34.664,271.106 36.340,271.307 41.267 C 271.386 43.202,271.507 44.877,271.576 44.989 C 271.646 45.101,271.735 45.543,271.774 45.971 C 271.814 46.400,271.913 46.900,271.994 47.083 C 272.076 47.267,272.189 47.700,272.246 48.045 C 272.332 48.566,272.397 48.648,272.623 48.521 C 272.898 48.367,273.667 48.601,273.667 48.839 C 273.667 48.905,273.835 48.960,274.042 48.962 C 274.248 48.964,274.983 49.116,275.675 49.299 C 276.368 49.483,277.137 49.594,277.385 49.547 C 277.633 49.500,277.946 49.553,278.082 49.666 C 278.347 49.885,278.419 49.792,278.535 49.083 C 278.567 48.888,278.727 48.743,278.920 48.733 C 279.602 48.698,279.679 48.656,279.879 48.208 C 280.102 47.707,280.641 47.181,280.939 47.172 C 281.147 47.166,281.483 45.999,281.613 44.833 C 281.659 44.421,281.760 44.007,281.837 43.913 C 281.914 43.819,282.030 42.994,282.095 42.080 C 282.159 41.165,282.280 40.373,282.362 40.320 C 282.588 40.174,282.743 39.000,282.536 39.000 C 282.435 39.000,282.499 38.635,282.690 38.125 C 283.001 37.297,283.016 35.575,282.728 33.750 C 282.699 33.567,282.625 32.704,282.563 31.833 C 282.501 30.962,282.392 30.211,282.320 30.164 C 282.249 30.117,282.146 29.340,282.094 28.438 C 281.986 26.610,281.934 26.445,281.508 26.581 C 281.246 26.664,281.202 26.530,281.131 25.427 C 281.087 24.740,280.955 24.064,280.838 23.923 C 280.721 23.782,280.671 23.667,280.727 23.667 C 280.783 23.667,280.680 23.289,280.498 22.827 C 280.316 22.365,280.167 21.764,280.167 21.492 C 280.167 21.219,280.100 20.865,280.019 20.706 C 279.861 20.398,279.534 18.854,279.393 17.750 C 279.346 17.383,279.243 16.933,279.164 16.750 C 279.030 16.441,278.767 15.384,278.552 14.292 C 278.503 14.040,278.396 13.833,278.314 13.833 C 278.233 13.833,278.167 13.751,278.167 13.650 C 278.167 13.445,277.878 12.770,277.105 11.167 C 276.599 10.116,275.269 8.508,274.903 8.503 C 274.803 8.501,274.466 8.247,274.153 7.939 C 273.840 7.630,273.283 7.283,272.917 7.167 C 272.550 7.051,272.162 6.887,272.054 6.802 C 271.797 6.598,269.106 6.486,268.241 6.642 M337.875 7.618 C 337.669 7.657,337.500 7.760,337.500 7.845 C 337.500 7.930,337.233 8.000,336.907 8.000 C 336.236 8.000,334.841 8.311,334.570 8.521 C 334.471 8.597,333.909 8.843,333.320 9.066 C 329.657 10.454,325.486 13.514,324.341 15.652 C 324.239 15.844,324.041 16.000,323.902 16.000 C 323.575 16.000,323.215 16.875,323.074 18.014 C 323.012 18.510,322.849 19.096,322.712 19.315 C 322.471 19.698,322.486 20.372,322.757 21.276 C 322.830 21.523,322.794 21.627,322.640 21.609 C 322.189 21.557,322.213 22.439,322.667 22.583 C 322.850 22.642,323.000 22.797,323.000 22.928 C 323.000 23.059,323.073 23.167,323.161 23.167 C 323.250 23.167,323.279 23.280,323.226 23.418 C 323.084 23.788,323.588 24.733,324.435 25.687 C 324.845 26.149,325.224 26.745,325.278 27.013 C 325.379 27.518,326.383 28.544,327.092 28.868 C 327.317 28.970,327.500 29.183,327.500 29.341 C 327.500 29.510,327.757 29.749,328.125 29.922 C 328.469 30.083,328.813 30.321,328.889 30.451 C 328.965 30.581,329.190 30.668,329.389 30.646 C 330.026 30.573,330.547 30.825,330.322 31.097 C 330.171 31.279,330.174 31.391,330.333 31.583 C 330.606 31.912,331.000 31.903,331.000 31.569 C 331.000 31.205,331.403 31.370,331.475 31.764 C 331.565 32.263,331.789 32.411,332.085 32.166 C 332.312 31.977,332.363 31.995,332.440 32.289 C 332.498 32.509,332.809 32.737,333.307 32.923 C 333.734 33.083,334.158 33.270,334.250 33.339 C 334.615 33.614,337.943 35.285,338.333 35.388 C 339.224 35.625,339.581 36.069,339.343 36.644 C 339.101 37.228,337.729 38.541,336.939 38.945 C 336.652 39.093,336.117 39.512,335.750 39.877 C 335.024 40.600,333.682 41.152,332.625 41.161 C 332.281 41.164,332.000 41.245,332.000 41.342 C 332.000 42.234,325.513 42.705,325.284 41.829 C 325.237 41.648,325.078 41.500,324.932 41.500 C 324.539 41.500,324.592 42.282,325.000 42.500 C 325.183 42.598,325.333 42.788,325.333 42.923 C 325.333 43.215,325.777 43.251,325.872 42.967 C 325.914 42.842,325.980 42.873,326.048 43.050 C 326.139 43.289,326.046 43.333,325.445 43.333 C 324.727 43.333,324.333 43.552,324.333 43.950 C 324.333 44.069,324.436 44.167,324.561 44.167 C 324.686 44.167,324.974 44.352,325.201 44.579 C 325.444 44.822,325.968 45.068,326.475 45.177 C 326.990 45.287,327.401 45.481,327.496 45.659 C 327.666 45.978,328.947 46.382,329.240 46.210 C 329.337 46.153,329.173 46.337,328.876 46.619 C 328.393 47.077,328.270 47.117,327.731 46.996 C 327.398 46.921,327.030 46.896,326.913 46.941 C 326.566 47.074,326.442 46.663,326.759 46.431 C 327.194 46.113,326.941 45.891,326.004 45.766 C 325.543 45.705,325.167 45.586,325.167 45.502 C 325.167 45.301,324.081 45.100,323.729 45.235 C 323.475 45.333,323.475 45.363,323.727 45.642 C 323.877 45.807,324.004 46.012,324.009 46.096 C 324.019 46.267,325.575 47.333,325.814 47.333 C 325.897 47.333,326.008 47.446,326.060 47.583 C 326.113 47.721,326.305 47.833,326.487 47.833 C 326.669 47.833,327.069 48.092,327.377 48.409 C 327.854 48.901,328.064 48.992,328.813 49.034 C 329.629 49.080,329.697 49.116,329.786 49.561 C 329.879 50.021,329.910 50.035,330.696 49.959 C 331.144 49.916,331.545 49.938,331.588 50.008 C 331.631 50.078,331.978 50.093,332.359 50.042 C 332.860 49.975,333.018 50.003,332.932 50.143 C 332.475 50.881,335.865 51.376,337.317 50.783 C 337.647 50.648,338.254 50.409,338.667 50.252 C 339.079 50.095,340.092 49.678,340.917 49.324 C 341.742 48.970,342.642 48.659,342.917 48.632 C 343.290 48.596,343.430 48.488,343.470 48.208 C 343.499 48.002,343.630 47.824,343.762 47.813 C 344.280 47.767,344.350 47.744,344.464 47.579 C 344.530 47.485,344.921 47.148,345.333 46.831 C 346.362 46.039,347.187 45.140,347.579 44.384 C 347.760 44.035,348.074 43.523,348.278 43.247 C 348.988 42.281,349.161 39.300,348.559 38.421 C 348.435 38.240,348.332 37.865,348.330 37.588 C 348.325 36.983,347.842 35.891,347.353 35.382 C 347.159 35.180,347.000 34.936,347.000 34.840 C 347.000 34.745,346.930 34.667,346.845 34.667 C 346.759 34.667,346.644 34.535,346.590 34.375 C 346.431 33.911,343.537 30.978,342.167 29.894 C 340.945 28.926,339.621 28.148,336.250 26.417 C 335.333 25.946,334.433 25.473,334.250 25.367 C 334.067 25.260,333.354 24.914,332.667 24.598 C 331.259 23.951,330.593 23.514,331.005 23.505 C 331.145 23.502,331.385 23.354,331.538 23.175 C 331.691 22.996,332.120 22.648,332.492 22.402 C 333.213 21.925,333.316 21.665,332.916 21.333 C 332.510 20.996,331.405 21.893,330.662 23.162 C 330.398 23.613,330.308 23.207,330.517 22.509 C 330.631 22.130,330.959 21.579,331.248 21.285 C 332.107 20.408,333.167 19.500,333.331 19.500 C 333.415 19.500,333.543 19.400,333.617 19.279 C 333.690 19.157,334.012 18.914,334.333 18.739 C 335.144 18.296,335.508 17.981,335.403 17.811 C 335.354 17.732,335.537 17.667,335.810 17.667 C 336.082 17.667,336.331 17.596,336.361 17.510 C 336.392 17.424,336.604 17.318,336.833 17.275 C 337.063 17.232,337.466 17.114,337.730 17.011 C 337.995 16.909,338.344 16.867,338.508 16.919 C 338.671 16.971,338.860 16.925,338.927 16.817 C 339.070 16.585,338.385 16.009,337.958 16.004 C 337.798 16.002,337.667 15.887,337.667 15.750 C 337.667 15.612,337.579 15.500,337.472 15.500 C 337.216 15.500,338.818 14.670,339.250 14.578 C 339.848 14.451,340.247 13.754,340.303 12.738 C 340.354 11.806,340.571 11.199,340.939 10.961 C 341.254 10.757,340.775 9.664,340.101 9.047 C 339.771 8.743,339.500 8.427,339.500 8.343 C 339.500 8.136,338.667 7.494,338.436 7.523 C 338.334 7.535,338.081 7.578,337.875 7.618 M356.598 8.917 C 356.386 9.146,356.054 9.333,355.862 9.333 C 355.669 9.333,355.431 9.483,355.333 9.667 C 355.235 9.851,354.984 10.000,354.773 10.000 C 354.413 10.000,353.667 10.612,353.667 10.908 C 353.667 10.983,353.498 11.191,353.292 11.370 C 352.980 11.640,352.911 11.884,352.886 12.806 C 352.839 14.516,352.800 14.669,352.381 14.774 C 351.888 14.898,351.835 15.759,352.311 15.910 C 352.757 16.051,353.064 18.504,352.667 18.750 C 352.459 18.878,352.447 19.453,352.651 19.528 C 352.901 19.620,353.001 21.975,352.990 27.500 C 352.963 40.920,353.019 42.538,353.601 44.884 C 353.904 46.107,354.333 47.354,354.528 47.575 C 354.759 47.839,354.685 48.163,354.417 48.060 C 354.027 47.911,354.095 48.884,354.500 49.250 C 354.683 49.416,354.839 49.484,354.845 49.401 C 354.851 49.318,354.921 49.400,355.000 49.583 C 355.078 49.767,355.105 50.146,355.059 50.427 C 355.003 50.766,355.061 51.009,355.230 51.150 C 355.672 51.517,355.883 51.193,355.778 50.311 C 355.726 49.865,355.748 49.500,355.829 49.500 C 355.910 49.500,356.000 49.374,356.029 49.220 C 356.080 48.958,356.101 48.958,356.363 49.220 C 356.782 49.639,357.167 49.574,357.167 49.083 C 357.167 48.854,357.108 48.667,357.037 48.667 C 356.965 48.667,356.821 48.442,356.718 48.167 C 356.499 47.587,356.549 47.549,356.974 47.974 C 357.143 48.143,357.328 48.568,357.385 48.919 C 357.507 49.670,357.801 49.914,358.176 49.575 C 358.323 49.442,358.681 49.333,358.971 49.333 C 359.434 49.333,359.501 49.276,359.511 48.875 C 359.521 48.434,359.527 48.431,359.672 48.792 C 359.852 49.240,360.135 49.278,360.288 48.875 C 360.446 48.458,360.768 48.167,361.071 48.167 C 361.222 48.167,361.333 48.025,361.333 47.833 C 361.333 47.650,361.408 47.500,361.500 47.500 C 361.592 47.500,361.667 47.350,361.667 47.167 C 361.667 46.983,361.736 46.833,361.820 46.833 C 361.904 46.833,362.145 46.552,362.356 46.208 C 362.567 45.865,362.865 45.447,363.018 45.280 C 363.314 44.958,363.473 43.534,363.524 40.750 C 363.539 39.925,363.666 38.575,363.805 37.750 C 364.246 35.136,364.120 17.108,363.651 15.876 C 363.568 15.657,363.498 14.864,363.495 14.114 C 363.488 12.227,362.107 9.628,361.206 9.807 C 361.090 9.830,360.951 9.733,360.897 9.591 C 360.842 9.449,360.720 9.333,360.626 9.333 C 360.531 9.333,360.356 9.202,360.238 9.042 C 360.069 8.812,359.978 8.793,359.817 8.953 C 359.656 9.112,359.570 9.099,359.419 8.891 C 359.257 8.670,359.170 8.662,358.886 8.839 C 358.603 9.016,358.481 9.005,358.153 8.776 C 357.594 8.384,357.045 8.434,356.598 8.917 M378.887 8.767 C 378.831 8.914,378.889 9.100,379.017 9.181 C 379.188 9.289,379.138 9.329,378.829 9.331 C 378.597 9.332,378.239 9.451,378.033 9.596 C 377.815 9.748,377.247 9.873,376.680 9.894 C 375.660 9.931,375.252 10.135,375.073 10.699 C 374.954 11.075,374.014 11.988,373.738 11.995 C 373.531 12.001,372.639 13.071,372.464 13.525 C 372.398 13.694,372.261 13.833,372.160 13.833 C 372.059 13.833,371.996 14.002,372.021 14.208 C 372.046 14.415,371.958 14.771,371.825 15.000 C 371.692 15.229,371.388 16.054,371.149 16.832 C 370.885 17.691,370.623 18.255,370.482 18.265 C 369.763 18.319,369.780 18.276,369.892 19.736 C 369.998 21.118,369.511 22.833,369.013 22.833 C 368.937 22.833,368.828 23.136,368.768 23.506 C 368.709 23.876,368.553 24.492,368.421 24.874 C 368.286 25.268,368.244 25.643,368.324 25.742 C 368.402 25.838,368.468 27.005,368.470 28.334 C 368.473 29.664,368.564 31.107,368.674 31.542 C 368.783 31.976,368.823 32.538,368.762 32.791 C 368.531 33.755,368.485 34.500,368.658 34.500 C 368.755 34.500,368.833 34.621,368.833 34.768 C 368.833 34.946,368.924 35.001,369.103 34.932 C 369.330 34.845,369.353 34.914,369.254 35.373 C 368.995 36.571,369.024 37.486,369.334 37.880 C 369.500 38.091,369.686 38.635,369.747 39.090 C 369.897 40.213,370.155 40.833,370.470 40.833 C 370.675 40.833,370.689 40.878,370.533 41.033 C 370.242 41.325,370.274 42.333,370.575 42.333 C 370.708 42.333,370.893 42.202,370.987 42.042 C 371.145 41.770,371.157 41.769,371.162 42.036 C 371.166 42.275,373.366 44.667,373.581 44.667 C 373.619 44.667,373.906 44.929,374.217 45.250 C 374.529 45.571,374.867 45.833,374.968 45.833 C 375.069 45.833,375.419 46.014,375.745 46.236 C 376.071 46.457,376.656 46.691,377.044 46.755 C 377.432 46.819,377.842 46.945,377.954 47.035 C 378.174 47.214,379.166 47.498,379.833 47.576 C 380.481 47.650,380.500 47.657,380.500 47.818 C 380.500 48.077,378.956 48.195,378.083 48.004 C 377.208 47.812,375.500 47.032,375.500 46.824 C 375.500 46.612,374.626 46.474,374.442 46.658 C 374.066 47.034,376.461 48.879,377.572 49.069 C 377.670 49.086,377.914 49.190,378.114 49.300 C 378.314 49.410,378.638 49.500,378.833 49.500 C 379.029 49.500,379.335 49.578,379.513 49.674 C 379.727 49.788,380.032 49.794,380.407 49.690 C 380.853 49.567,380.959 49.580,380.894 49.750 C 380.568 50.600,383.361 50.383,385.280 49.409 C 385.722 49.185,386.141 49.001,386.212 49.001 C 386.429 49.000,387.635 48.153,388.262 47.561 C 388.589 47.252,388.930 47.000,389.019 47.000 C 389.251 47.000,390.167 46.299,390.167 46.121 C 390.167 46.038,390.646 45.471,391.232 44.861 C 393.230 42.777,393.667 42.279,393.667 42.082 C 393.667 41.973,393.817 41.711,394.000 41.500 C 394.183 41.289,394.333 41.062,394.333 40.997 C 394.333 40.932,394.553 40.602,394.822 40.264 C 395.091 39.926,395.359 39.428,395.419 39.158 C 395.478 38.888,395.582 38.667,395.649 38.667 C 396.004 38.667,397.155 34.216,396.971 33.557 C 396.949 33.480,397.027 33.137,397.144 32.795 C 397.371 32.133,397.297 31.833,396.907 31.833 C 396.775 31.833,396.667 31.721,396.667 31.583 C 396.667 31.446,396.602 31.333,396.523 31.333 C 396.444 31.333,396.414 31.155,396.455 30.936 C 396.551 30.437,396.344 30.306,395.675 30.440 C 395.347 30.506,395.179 30.624,395.229 30.755 C 395.276 30.879,395.144 30.997,394.907 31.043 C 394.546 31.112,394.509 31.067,394.544 30.601 C 394.593 29.951,393.989 29.839,393.840 30.471 L 393.749 30.859 393.375 30.429 C 393.170 30.193,392.933 30.000,392.848 30.000 C 392.763 30.000,392.643 29.770,392.581 29.488 C 392.501 29.127,392.395 29.004,392.221 29.072 C 392.084 29.124,391.880 29.167,391.767 29.167 C 391.655 29.167,391.458 29.433,391.330 29.759 L 391.098 30.350 390.820 29.983 C 390.665 29.777,390.437 29.655,390.303 29.707 C 390.119 29.777,390.080 29.685,390.134 29.316 C 390.194 28.907,390.148 28.833,389.833 28.833 C 389.526 28.833,389.475 28.906,389.541 29.250 C 389.594 29.529,389.546 29.667,389.394 29.667 C 389.269 29.667,389.167 29.521,389.167 29.343 C 389.167 29.165,389.090 28.972,388.996 28.914 C 388.796 28.791,387.833 29.183,387.833 29.388 C 387.833 29.465,387.590 29.778,387.292 30.084 C 386.522 30.874,386.267 31.246,385.634 32.500 C 385.426 32.912,384.874 33.850,384.408 34.583 C 383.942 35.317,383.381 36.217,383.161 36.583 C 382.164 38.244,380.629 40.000,380.175 40.000 C 379.529 40.000,378.971 37.954,379.427 37.258 C 379.725 36.803,379.603 35.696,379.240 35.556 C 378.690 35.345,378.328 29.598,378.649 26.167 C 379.093 21.414,379.143 21.034,379.343 20.911 C 379.429 20.857,379.500 20.673,379.500 20.502 C 379.500 20.331,379.613 20.078,379.750 19.940 C 379.887 19.803,380.000 19.548,380.000 19.373 C 380.000 18.946,380.174 18.799,380.428 19.010 C 380.582 19.137,380.753 19.059,381.069 18.718 C 381.512 18.241,381.658 18.418,381.298 18.995 C 381.005 19.464,381.269 19.610,381.823 19.283 C 382.414 18.933,383.320 18.920,384.109 19.250 C 384.438 19.388,384.846 19.500,385.017 19.500 C 385.187 19.500,385.449 19.688,385.599 19.917 C 385.749 20.146,385.969 20.333,386.089 20.333 C 386.208 20.333,386.331 20.408,386.361 20.500 C 386.397 20.609,386.606 20.613,386.958 20.512 C 387.386 20.389,387.500 20.406,387.500 20.591 C 387.500 20.719,387.725 20.941,388.000 21.083 C 388.538 21.362,388.750 22.548,388.292 22.715 C 387.650 22.948,388.468 23.417,389.518 23.417 L 390.583 23.417 390.738 22.792 C 390.882 22.206,391.198 21.980,391.405 22.314 C 391.455 22.395,391.703 22.503,391.956 22.553 C 392.209 22.604,392.784 22.725,393.233 22.822 C 393.816 22.949,394.112 22.948,394.268 22.819 C 394.387 22.719,394.556 22.682,394.642 22.735 C 394.729 22.788,394.976 22.646,395.191 22.419 C 395.407 22.192,395.667 22.004,395.769 22.003 C 395.871 22.001,396.153 21.845,396.394 21.655 C 396.636 21.465,396.833 21.361,396.833 21.425 C 396.833 21.489,396.951 21.443,397.094 21.324 C 397.397 21.073,397.295 17.337,396.961 16.417 C 396.323 14.661,394.918 12.500,394.415 12.500 C 394.354 12.500,393.883 12.125,393.368 11.667 C 392.854 11.208,392.336 10.833,392.217 10.833 C 392.098 10.833,392.000 10.721,392.000 10.583 C 392.000 10.446,391.896 10.333,391.768 10.333 C 391.640 10.333,391.492 10.221,391.440 10.083 C 391.387 9.946,391.206 9.833,391.037 9.833 C 390.868 9.833,390.585 9.723,390.407 9.589 C 390.229 9.454,389.919 9.342,389.718 9.339 C 389.517 9.336,389.311 9.265,389.259 9.182 C 389.063 8.865,386.755 8.622,384.970 8.730 C 383.829 8.799,383.152 8.777,383.085 8.669 C 382.895 8.362,379.008 8.452,378.887 8.767 M377.292 8.782 C 376.954 8.870,376.912 9.179,377.200 9.467 C 377.473 9.739,377.833 9.719,377.833 9.431 C 377.833 9.301,377.922 9.165,378.030 9.129 C 378.272 9.048,378.055 8.659,377.782 8.686 C 377.673 8.697,377.452 8.740,377.292 8.782 M21.435 10.184 C 23.064 11.173,23.167 11.749,23.167 19.934 L 23.167 26.954 22.292 27.759 C 19.966 29.896,18.989 30.807,17.895 31.858 C 17.241 32.486,16.660 33.000,16.603 33.000 C 16.284 33.000,16.502 12.316,16.828 11.678 C 17.738 9.893,19.837 9.212,21.435 10.184 M289.773 10.083 C 289.608 10.514,289.645 10.667,289.917 10.667 C 290.454 10.667,290.131 10.983,289.544 11.032 C 288.979 11.078,288.910 11.138,288.805 11.667 C 288.529 13.055,288.282 13.933,288.106 14.150 C 287.743 14.597,287.337 17.667,287.640 17.667 C 287.717 17.667,287.722 18.023,287.650 18.458 C 287.442 19.725,287.466 20.215,287.732 20.113 C 287.893 20.051,287.956 20.147,287.940 20.429 C 287.927 20.651,287.835 20.833,287.735 20.833 C 287.501 20.833,287.131 21.640,287.265 21.857 C 287.321 21.948,287.482 21.979,287.622 21.925 C 287.838 21.842,287.860 21.960,287.771 22.705 C 287.713 23.188,287.618 24.877,287.559 26.458 C 287.469 28.857,287.410 29.333,287.201 29.333 C 286.784 29.333,287.032 31.750,287.794 35.125 C 287.944 35.790,288.127 36.333,288.200 36.333 C 288.273 36.333,288.333 36.542,288.333 36.797 C 288.333 37.053,288.483 37.688,288.667 38.210 C 288.850 38.732,289.000 39.305,289.000 39.484 C 289.000 39.663,289.101 39.911,289.225 40.034 C 289.349 40.158,289.540 40.534,289.651 40.869 C 289.762 41.204,289.904 41.502,289.968 41.531 C 290.031 41.560,290.285 41.958,290.532 42.417 C 291.003 43.290,291.426 43.513,291.403 42.875 C 291.396 42.669,291.424 42.500,291.466 42.500 C 291.691 42.500,293.833 44.231,293.833 44.413 C 293.833 44.531,294.190 44.939,294.625 45.320 C 295.060 45.701,295.589 46.172,295.800 46.365 C 296.264 46.791,297.247 47.333,297.557 47.333 C 297.681 47.333,297.953 47.482,298.163 47.663 C 298.604 48.046,299.420 48.232,300.239 48.136 C 300.685 48.084,300.830 48.136,300.891 48.368 C 301.001 48.792,302.166 48.798,302.169 48.375 C 302.171 48.186,302.215 48.151,302.295 48.277 C 302.419 48.473,303.347 48.505,303.500 48.319 C 303.716 48.056,305.365 48.010,305.266 48.270 C 305.211 48.411,305.167 48.556,305.167 48.592 C 305.167 48.627,305.061 48.616,304.932 48.566 C 304.648 48.457,304.005 48.976,303.987 49.329 C 303.978 49.500,303.946 49.515,303.890 49.375 C 303.774 49.089,303.223 49.112,303.110 49.408 C 302.804 50.206,300.470 49.853,298.818 48.759 C 298.294 48.413,298.084 48.351,297.940 48.499 C 297.702 48.744,298.733 49.693,299.541 49.973 C 300.003 50.132,299.894 50.147,298.805 50.074 C 297.515 49.988,297.129 50.123,297.586 50.502 C 297.925 50.783,300.369 51.014,301.023 50.827 C 301.311 50.744,301.650 50.734,301.777 50.805 C 302.396 51.152,306.826 50.381,307.617 49.789 C 307.993 49.508,309.070 49.000,309.290 49.000 C 309.411 49.000,309.555 48.884,309.609 48.743 C 309.664 48.601,309.985 48.207,310.324 47.868 C 311.687 46.502,313.562 43.246,314.334 40.904 C 314.581 40.155,314.905 39.562,315.258 39.216 C 315.632 38.848,315.837 38.458,315.915 37.966 C 315.977 37.572,316.159 36.950,316.318 36.583 C 316.790 35.496,317.028 34.790,317.162 34.083 C 317.231 33.717,317.364 33.229,317.457 33.000 C 317.550 32.771,317.680 31.898,317.746 31.060 C 317.812 30.221,317.896 29.246,317.933 28.893 C 318.149 26.835,318.188 23.976,318.003 23.753 C 317.780 23.485,317.611 22.303,317.324 19.000 C 317.217 17.762,317.025 16.497,316.898 16.188 C 316.771 15.879,316.667 15.269,316.667 14.833 C 316.667 13.976,316.368 13.554,315.891 13.737 C 315.678 13.819,315.657 13.891,315.805 14.039 C 316.074 14.307,316.050 15.112,315.771 15.219 C 315.631 15.273,315.550 15.202,315.562 15.039 C 315.575 14.872,315.380 14.711,315.042 14.611 C 314.615 14.486,314.500 14.362,314.500 14.029 C 314.500 12.942,313.827 12.066,313.583 12.836 C 313.449 13.255,313.168 13.115,313.280 12.685 C 313.392 12.257,313.176 12.162,312.457 12.324 C 312.097 12.405,311.827 12.398,311.797 12.306 C 311.768 12.221,311.458 12.271,311.108 12.417 C 310.634 12.615,310.414 12.636,310.248 12.498 C 310.125 12.396,309.925 12.332,309.804 12.356 C 309.305 12.453,308.833 12.144,308.833 11.721 C 308.833 11.422,308.763 11.325,308.594 11.389 C 308.463 11.440,308.318 11.392,308.272 11.282 C 308.225 11.169,308.141 11.239,308.078 11.447 C 308.008 11.677,307.878 11.776,307.723 11.717 C 307.583 11.663,307.372 11.775,307.230 11.978 C 307.091 12.176,306.801 12.333,306.574 12.333 C 306.078 12.333,306.005 13.028,306.435 13.642 C 306.777 14.130,306.951 16.051,306.800 17.667 C 306.635 19.428,306.335 22.339,306.268 22.833 C 306.237 23.063,306.156 23.887,306.088 24.667 C 306.020 25.446,305.853 26.308,305.716 26.583 C 305.580 26.858,305.404 27.758,305.325 28.583 C 305.061 31.361,304.484 34.857,304.169 35.583 C 304.090 35.767,303.988 36.104,303.943 36.333 C 303.581 38.167,301.444 40.731,300.675 40.255 C 300.463 40.124,299.858 38.976,299.776 38.548 C 299.744 38.384,299.561 37.897,299.368 37.466 C 299.176 37.034,298.986 36.397,298.947 36.049 C 298.907 35.701,298.801 35.229,298.711 35.000 C 298.520 34.516,298.287 32.156,298.246 30.289 C 298.230 29.577,298.178 28.956,298.130 28.908 C 298.082 28.860,298.083 27.755,298.131 26.452 C 298.180 25.149,298.210 23.671,298.198 23.167 C 298.186 22.662,298.174 21.631,298.171 20.875 C 298.166 19.862,298.108 19.500,297.948 19.500 C 297.778 19.500,297.734 18.804,297.741 16.225 C 297.749 13.281,297.721 12.932,297.458 12.769 C 297.298 12.668,297.167 12.456,297.167 12.296 C 297.167 12.126,296.995 11.963,296.750 11.902 C 296.521 11.844,296.333 11.739,296.333 11.669 C 296.333 11.598,296.117 11.451,295.853 11.341 C 295.589 11.232,295.214 10.960,295.021 10.738 C 294.827 10.515,294.575 10.329,294.459 10.323 C 294.344 10.318,293.875 10.243,293.417 10.157 C 291.601 9.817,289.888 9.783,289.773 10.083 M386.103 14.275 C 386.431 14.536,386.841 14.824,387.016 14.915 C 387.382 15.104,387.403 15.225,387.150 15.698 C 386.938 16.093,387.424 17.328,387.792 17.331 C 387.906 17.332,388.000 17.365,388.000 17.403 C 388.000 17.441,388.042 17.582,388.093 17.715 C 388.231 18.074,387.405 18.177,386.617 17.899 C 385.834 17.623,385.167 17.597,385.167 17.843 C 385.167 17.940,385.092 17.973,385.000 17.917 C 384.908 17.860,384.833 17.666,384.833 17.485 C 384.833 17.024,384.368 16.891,384.081 17.271 C 383.863 17.558,383.844 17.560,383.839 17.292 C 383.836 17.131,383.767 17.000,383.686 17.000 C 383.605 17.000,383.498 16.842,383.447 16.650 C 383.397 16.457,383.287 16.342,383.204 16.394 C 383.010 16.514,381.794 16.183,381.870 16.031 C 381.902 15.968,382.024 15.729,382.142 15.500 C 382.994 13.845,384.846 13.272,386.103 14.275 M382.479 16.938 C 383.346 17.111,383.065 17.333,381.980 17.333 C 381.091 17.333,380.986 17.301,381.167 17.083 C 381.393 16.810,381.683 16.778,382.479 16.938 M336.833 17.799 C 336.604 17.835,336.304 17.961,336.167 18.080 C 336.029 18.199,335.523 18.500,335.042 18.749 C 334.292 19.137,334.167 19.271,334.167 19.684 C 334.167 20.293,334.206 20.289,335.189 19.583 C 335.635 19.262,336.104 19.000,336.230 19.000 C 336.356 19.000,336.553 18.887,336.667 18.750 C 336.781 18.612,337.007 18.500,337.169 18.500 C 337.531 18.500,337.721 18.078,337.448 17.879 C 337.339 17.800,337.063 17.764,336.833 17.799 M28.066 20.796 C 29.317 21.671,29.333 21.756,29.333 27.546 C 29.333 32.327,29.311 32.724,29.005 33.324 C 28.419 34.472,27.211 35.117,25.960 34.949 C 24.743 34.786,24.790 34.617,26.521 32.939 C 27.921 31.582,28.144 31.287,28.314 30.569 C 28.881 28.168,26.450 26.015,23.958 26.712 L 23.500 26.840 23.500 24.570 C 23.500 22.821,23.562 22.170,23.771 21.730 C 24.483 20.229,26.598 19.769,28.066 20.796 M383.064 22.475 C 382.080 23.394,381.738 23.921,382.016 24.093 C 382.225 24.223,384.333 22.209,384.333 21.880 C 384.333 21.483,383.920 21.677,383.064 22.475 M380.272 22.745 C 380.002 22.977,379.833 23.259,379.884 23.391 C 379.933 23.520,379.887 23.713,379.780 23.820 C 379.633 23.967,379.644 24.050,379.829 24.164 C 380.151 24.363,380.547 24.030,380.446 23.646 C 380.394 23.444,380.477 23.336,380.713 23.301 C 380.946 23.266,381.076 23.102,381.117 22.792 C 381.194 22.213,380.909 22.197,380.272 22.745 M26.611 27.350 C 27.523 27.914,28.000 28.759,28.000 29.811 C 28.000 31.208,28.129 31.053,22.926 35.917 C 21.652 37.108,20.341 38.335,20.013 38.643 C 18.131 40.408,15.692 40.176,14.649 38.132 C 14.084 37.024,14.433 35.261,15.335 34.667 C 15.481 34.571,19.403 30.893,21.468 28.917 C 23.565 26.909,25.127 26.433,26.611 27.350 M315.781 39.274 C 315.545 39.510,315.679 39.833,316.012 39.833 C 316.245 39.833,316.340 39.743,316.304 39.555 C 316.244 39.249,315.960 39.096,315.781 39.274 M371.060 40.417 C 371.119 40.569,371.061 40.667,370.911 40.667 C 370.777 40.667,370.667 40.554,370.667 40.417 C 370.667 40.279,370.734 40.167,370.816 40.167 C 370.897 40.167,371.008 40.279,371.060 40.417 M315.172 40.990 C 315.049 41.221,315.054 41.347,315.191 41.432 C 315.407 41.565,315.872 41.031,315.735 40.809 C 315.589 40.573,315.355 40.648,315.172 40.990 M313.112 42.292 C 312.979 42.544,312.788 42.938,312.687 43.167 C 312.250 44.152,311.347 45.494,310.631 46.221 C 310.376 46.480,310.167 46.790,310.167 46.909 C 310.167 47.028,310.054 47.219,309.917 47.333 C 309.441 47.728,309.643 47.167,310.431 45.903 C 310.851 45.229,311.212 44.556,311.234 44.407 C 311.256 44.259,311.587 43.810,311.970 43.410 C 312.353 43.010,312.667 42.628,312.667 42.563 C 312.667 42.433,313.175 41.833,313.285 41.833 C 313.322 41.833,313.244 42.040,313.112 42.292 M322.865 44.792 C 322.896 44.952,323.069 45.083,323.250 45.083 C 323.431 45.083,323.604 44.952,323.635 44.792 C 323.677 44.573,323.580 44.500,323.250 44.500 C 322.920 44.500,322.823 44.573,322.865 44.792 M260.031 46.167 C 260.476 46.167,260.287 46.403,259.526 46.800 C 258.761 47.199,258.585 47.118,258.434 46.297 L 258.320 45.677 259.014 45.922 C 259.396 46.056,259.854 46.167,260.031 46.167 M309.500 45.804 C 309.500 45.880,309.313 46.118,309.083 46.333 C 308.600 46.787,308.537 46.658,308.958 46.078 C 309.252 45.675,309.500 45.549,309.500 45.804 M306.927 47.871 C 306.784 47.951,306.667 48.132,306.667 48.272 C 306.667 48.417,306.577 48.486,306.458 48.431 C 306.344 48.377,306.119 48.287,305.958 48.231 C 305.532 48.080,305.599 47.924,306.208 47.647 C 306.803 47.377,307.450 47.578,306.927 47.871 M324.336 47.791 C 323.631 47.853,323.262 48.083,323.430 48.355 C 323.472 48.422,323.898 48.437,324.378 48.387 C 324.857 48.338,325.344 48.293,325.458 48.288 C 325.573 48.282,325.667 48.140,325.667 47.972 C 325.667 47.781,325.557 47.678,325.375 47.696 C 325.215 47.712,324.747 47.754,324.336 47.791 M327.742 49.599 C 327.655 49.620,327.377 49.683,327.125 49.739 C 326.813 49.807,326.667 49.945,326.667 50.170 C 326.667 50.567,326.705 50.570,327.814 50.240 C 328.851 49.932,328.785 49.347,327.742 49.599 " stroke="none" fill="#fcc424" fill-rule="evenodd"></path><path id="path3" d="M29.557 17.093 C 29.637 28.467,29.617 32.948,29.484 33.196 C 29.383 33.385,29.369 33.498,29.453 33.446 C 29.537 33.394,29.735 33.571,29.894 33.840 C 30.991 35.697,34.107 35.700,35.417 33.846 L 35.917 33.139 36.000 25.278 C 36.092 16.630,36.073 16.779,37.142 16.017 C 39.148 14.590,41.902 15.444,42.504 17.681 C 42.834 18.907,42.628 35.364,42.268 36.583 C 40.705 41.869,35.648 45.740,29.750 46.164 C 28.833 46.230,28.402 46.295,28.792 46.309 L 29.500 46.333 29.500 51.437 L 29.500 56.540 30.792 56.437 C 32.825 56.274,34.705 56.032,35.250 55.863 C 35.525 55.778,36.162 55.619,36.667 55.510 C 37.584 55.312,37.953 55.187,39.667 54.496 C 41.719 53.669,44.880 52.002,45.333 51.507 C 45.379 51.458,45.904 51.046,46.500 50.594 C 48.749 48.886,52.495 44.667,53.212 43.034 C 53.321 42.786,53.458 42.546,53.516 42.500 C 53.724 42.337,55.122 39.229,55.540 38.000 C 56.730 34.504,57.000 32.799,57.000 28.774 C 57.000 25.072,56.890 24.308,55.812 20.500 C 55.375 18.960,53.568 15.004,53.146 14.667 C 53.089 14.621,52.901 14.321,52.729 14.000 C 52.375 13.339,51.480 12.112,51.292 12.028 C 51.223 11.997,51.167 11.908,51.167 11.830 C 51.167 11.532,48.762 9.016,47.427 7.917 C 46.982 7.550,46.523 7.158,46.408 7.046 C 45.921 6.571,42.968 4.757,41.583 4.082 C 40.133 3.375,39.624 3.172,37.667 2.521 C 35.796 1.899,32.522 1.333,30.787 1.333 L 29.445 1.333 29.557 17.093 M23.076 19.833 C 23.076 23.821,23.098 25.452,23.125 23.458 C 23.151 21.465,23.151 18.202,23.125 16.208 C 23.098 14.215,23.076 15.846,23.076 19.833 M34.070 20.588 C 34.409 20.749,34.870 21.150,35.094 21.479 L 35.500 22.077 35.500 27.565 L 35.500 33.052 35.064 33.623 C 33.761 35.332,31.402 35.279,30.212 33.513 C 29.706 32.762,29.614 22.763,30.104 21.730 C 30.756 20.357,32.515 19.850,34.070 20.588 M22.073 27.875 L 21.583 28.417 22.125 27.927 C 22.630 27.471,22.743 27.333,22.615 27.333 C 22.586 27.333,22.342 27.577,22.073 27.875 M22.242 28.208 L 21.583 28.917 22.292 28.258 C 22.681 27.895,23.000 27.577,23.000 27.550 C 23.000 27.423,22.855 27.550,22.242 28.208 M19.573 30.708 L 19.083 31.250 19.625 30.760 C 19.923 30.491,20.167 30.248,20.167 30.219 C 20.167 30.090,20.029 30.203,19.573 30.708 M16.740 33.375 L 16.250 33.917 16.792 33.427 C 17.090 33.158,17.333 32.914,17.333 32.885 C 17.333 32.757,17.196 32.870,16.740 33.375 M25.909 33.542 L 25.250 34.250 25.958 33.591 C 26.348 33.229,26.667 32.910,26.667 32.883 C 26.667 32.757,26.522 32.883,25.909 33.542 M23.491 35.292 L 22.917 35.917 23.542 35.342 C 24.123 34.808,24.243 34.667,24.116 34.667 C 24.088 34.667,23.807 34.948,23.491 35.292 M25.958 34.951 C 26.165 34.991,26.502 34.991,26.708 34.951 C 26.915 34.911,26.746 34.879,26.333 34.879 C 25.921 34.879,25.752 34.911,25.958 34.951 M20.742 38.375 L 20.083 39.083 20.792 38.425 C 21.181 38.062,21.500 37.743,21.500 37.716 C 21.500 37.590,21.355 37.716,20.742 38.375 M17.042 39.786 C 17.294 39.824,17.706 39.824,17.958 39.786 C 18.210 39.748,18.004 39.717,17.500 39.717 C 16.996 39.717,16.790 39.748,17.042 39.786 " stroke="none" fill="#f3b324" fill-rule="evenodd"></path><path id="path4" d="M41.582 16.334 C 42.372 17.257,42.383 17.268,42.202 16.917 C 42.108 16.733,41.817 16.396,41.557 16.167 L 41.083 15.751 41.582 16.334 M42.577 26.417 C 42.577 31.092,42.599 33.028,42.625 30.720 C 42.651 28.412,42.651 24.587,42.625 22.220 C 42.599 19.853,42.577 21.742,42.577 26.417 M32.375 20.282 C 32.535 20.323,32.798 20.323,32.958 20.282 C 33.119 20.240,32.987 20.205,32.667 20.205 C 32.346 20.205,32.215 20.240,32.375 20.282 M24.240 21.208 L 23.750 21.750 24.292 21.260 C 24.590 20.991,24.833 20.748,24.833 20.719 C 24.833 20.590,24.696 20.703,24.240 21.208 M29.240 27.583 C 29.240 30.242,29.263 31.306,29.291 29.948 C 29.319 28.590,29.319 26.415,29.291 25.115 C 29.263 23.814,29.240 24.925,29.240 27.583 M16.570 29.333 C 16.570 31.121,16.594 31.852,16.624 30.958 C 16.654 30.065,16.654 28.602,16.624 27.708 C 16.594 26.815,16.570 27.546,16.570 29.333 M21.244 28.542 L 20.417 29.417 21.292 28.590 C 22.105 27.821,22.243 27.667,22.119 27.667 C 22.092 27.667,21.699 28.060,21.244 28.542 M20.833 29.583 C 20.428 29.996,20.135 30.333,20.181 30.333 C 20.226 30.333,20.595 29.996,21.000 29.583 C 21.405 29.171,21.699 28.833,21.653 28.833 C 21.607 28.833,21.238 29.171,20.833 29.583 M18.577 31.042 L 17.750 31.917 18.625 31.090 C 19.438 30.321,19.576 30.167,19.452 30.167 C 19.426 30.167,19.032 30.560,18.577 31.042 M18.161 32.125 L 17.250 33.083 18.208 32.172 C 18.735 31.671,19.167 31.240,19.167 31.214 C 19.167 31.090,19.007 31.235,18.161 32.125 M27.077 32.542 L 26.250 33.417 27.125 32.590 C 27.938 31.821,28.076 31.667,27.952 31.667 C 27.926 31.667,27.532 32.060,27.077 32.542 M24.910 33.875 L 24.083 34.750 24.958 33.923 C 25.771 33.154,25.910 33.000,25.785 33.000 C 25.759 33.000,25.365 33.394,24.910 33.875 M15.324 34.792 L 14.750 35.417 15.375 34.842 C 15.719 34.526,16.000 34.245,16.000 34.217 C 16.000 34.090,15.859 34.210,15.324 34.792 M22.244 36.375 L 21.417 37.250 22.292 36.423 C 23.105 35.654,23.243 35.500,23.119 35.500 C 23.092 35.500,22.699 35.894,22.244 36.375 M14.375 36.917 C 14.377 37.283,14.411 37.414,14.451 37.206 C 14.491 36.999,14.490 36.699,14.448 36.540 C 14.406 36.380,14.374 36.550,14.375 36.917 M22.077 37.208 L 21.250 38.083 22.125 37.256 C 22.938 36.488,23.076 36.333,22.952 36.333 C 22.926 36.333,22.532 36.727,22.077 37.208 M19.909 38.542 L 19.250 39.250 19.958 38.591 C 20.617 37.978,20.743 37.833,20.617 37.833 C 20.590 37.833,20.271 38.152,19.909 38.542 M38.909 42.042 L 38.250 42.750 38.958 42.091 C 39.348 41.729,39.667 41.410,39.667 41.383 C 39.667 41.257,39.522 41.383,38.909 42.042 " stroke="none" fill="#a67f24" fill-rule="evenodd"></path></g></svg>